<svg xmlns="http://www.w3.org/2000/svg" width="375" viewBox="0 0 375 262.5" height="262.5" version="1.0"><defs><clipPath id="a"><path d="M 12.632812 14.753906 L 130.789062 14.753906 L 130.789062 246.570312 L 12.632812 246.570312 Z M 12.632812 14.753906"/></clipPath></defs><path fill="#FFF" d="M 119.570312 245.738281 L 23.847656 245.738281 C 18.207031 245.738281 13.730469 241.25 13.730469 235.59375 L 13.730469 25.726562 C 13.730469 20.074219 18.207031 15.582031 23.847656 15.582031 L 119.570312 15.582031 C 125.210938 15.582031 129.691406 20.074219 129.691406 25.726562 L 129.691406 235.59375 C 129.691406 241.25 125.210938 245.738281 119.570312 245.738281 Z M 119.570312 245.738281"/><g clip-path="url(#a)"><path fill="#3D3A72" d="M 119.570312 246.570312 L 23.847656 246.570312 C 17.710938 246.570312 12.898438 241.582031 12.898438 235.59375 L 12.898438 25.726562 C 12.898438 19.742188 17.875 14.753906 23.847656 14.753906 L 119.570312 14.753906 C 125.710938 14.753906 130.519531 19.742188 130.519531 25.726562 L 130.519531 235.59375 C 130.519531 241.75 125.710938 246.570312 119.570312 246.570312 Z M 23.847656 16.414062 C 18.707031 16.414062 14.558594 20.574219 14.558594 25.726562 L 14.558594 235.59375 C 14.558594 240.75 18.707031 244.90625 23.847656 244.90625 L 119.570312 244.90625 C 124.714844 244.90625 128.863281 240.75 128.863281 235.59375 L 128.863281 25.726562 C 128.863281 20.574219 124.714844 16.414062 119.570312 16.414062 Z M 23.847656 16.414062"/></g><path fill="#1DF1F1" d="M 115.921875 211.480469 L 27.664062 211.480469 C 22.855469 211.480469 18.871094 207.492188 18.871094 202.667969 L 18.871094 33.210938 C 18.871094 28.386719 22.855469 24.398438 27.664062 24.398438 L 115.921875 24.398438 C 120.734375 24.398438 124.714844 28.386719 124.714844 33.210938 L 124.714844 202.667969 C 124.550781 207.65625 120.734375 211.480469 115.921875 211.480469 Z M 115.921875 211.480469"/><path fill="#3D3A72" d="M 115.921875 212.3125 L 27.664062 212.3125 C 22.355469 212.3125 18.042969 207.988281 18.042969 202.667969 L 18.042969 33.210938 C 18.042969 27.890625 22.355469 23.566406 27.664062 23.566406 L 115.921875 23.566406 C 121.230469 23.566406 125.542969 27.890625 125.542969 33.210938 L 125.542969 202.667969 C 125.378906 207.988281 121.066406 212.3125 115.921875 212.3125 Z M 27.664062 25.394531 C 23.351562 25.394531 19.703125 28.886719 19.703125 33.378906 L 19.703125 202.835938 C 19.703125 207.160156 23.1875 210.816406 27.664062 210.816406 L 115.921875 210.816406 C 120.234375 210.816406 123.886719 207.324219 123.886719 202.835938 L 123.886719 33.210938 C 123.886719 28.886719 120.402344 25.230469 115.921875 25.230469 L 27.664062 25.230469 Z M 27.664062 25.394531"/><path fill="#1DF1F1" d="M 81.414062 227.113281 C 81.414062 227.746094 81.355469 228.375 81.230469 228.996094 C 81.109375 229.617188 80.925781 230.21875 80.683594 230.804688 C 80.441406 231.390625 80.144531 231.945312 79.792969 232.472656 C 79.441406 233 79.042969 233.488281 78.597656 233.933594 C 78.152344 234.382812 77.664062 234.78125 77.140625 235.132812 C 76.613281 235.484375 76.058594 235.78125 75.476562 236.023438 C 74.890625 236.265625 74.289062 236.449219 73.671875 236.574219 C 73.050781 236.699219 72.425781 236.757812 71.792969 236.757812 C 71.160156 236.757812 70.535156 236.699219 69.917969 236.574219 C 69.296875 236.449219 68.695312 236.265625 68.113281 236.023438 C 67.527344 235.78125 66.972656 235.484375 66.449219 235.132812 C 65.921875 234.78125 65.4375 234.382812 64.988281 233.933594 C 64.542969 233.488281 64.144531 233 63.792969 232.472656 C 63.441406 231.945312 63.144531 231.390625 62.902344 230.804688 C 62.664062 230.21875 62.480469 229.617188 62.355469 228.996094 C 62.234375 228.375 62.171875 227.746094 62.171875 227.113281 C 62.171875 226.480469 62.234375 225.855469 62.355469 225.230469 C 62.480469 224.609375 62.664062 224.007812 62.902344 223.421875 C 63.144531 222.835938 63.441406 222.28125 63.792969 221.753906 C 64.144531 221.230469 64.542969 220.742188 64.988281 220.292969 C 65.4375 219.847656 65.921875 219.445312 66.449219 219.09375 C 66.972656 218.742188 67.527344 218.445312 68.113281 218.203125 C 68.695312 217.960938 69.296875 217.777344 69.917969 217.652344 C 70.535156 217.53125 71.160156 217.46875 71.792969 217.46875 C 72.425781 217.46875 73.050781 217.53125 73.671875 217.652344 C 74.289062 217.777344 74.890625 217.960938 75.476562 218.203125 C 76.058594 218.445312 76.613281 218.742188 77.140625 219.09375 C 77.664062 219.445312 78.152344 219.847656 78.597656 220.292969 C 79.042969 220.742188 79.441406 221.230469 79.792969 221.753906 C 80.144531 222.28125 80.441406 222.839844 80.683594 223.421875 C 80.925781 224.007812 81.109375 224.609375 81.230469 225.230469 C 81.355469 225.855469 81.414062 226.480469 81.414062 227.113281 Z M 81.414062 227.113281"/><path fill="#3D3A72" d="M 71.792969 237.425781 C 66.152344 237.425781 61.507812 232.769531 61.507812 227.113281 C 61.507812 221.460938 66.152344 216.804688 71.792969 216.804688 C 77.433594 216.804688 82.078125 221.460938 82.078125 227.113281 C 82.078125 232.769531 77.433594 237.425781 71.792969 237.425781 Z M 71.792969 218.300781 C 66.984375 218.300781 63.167969 222.292969 63.167969 226.949219 C 63.167969 231.605469 67.148438 235.59375 71.792969 235.59375 C 76.4375 235.59375 80.421875 231.605469 80.421875 226.949219 C 80.421875 222.292969 76.605469 218.300781 71.792969 218.300781 Z M 71.792969 218.300781"/><path fill="#3D3A72" d="M 90.871094 29.71875 L 52.550781 29.71875 C 49.730469 29.71875 47.242188 27.390625 47.242188 24.398438 C 47.242188 21.570312 49.5625 19.074219 52.550781 19.074219 L 90.871094 19.074219 C 93.691406 19.074219 96.179688 21.402344 96.179688 24.398438 C 96.179688 27.390625 93.859375 29.71875 90.871094 29.71875 Z M 90.871094 29.71875"/><path fill="#FFF" d="M 32.476562 50.339844 C 31.976562 50.339844 31.644531 50.007812 31.644531 49.507812 L 31.644531 43.355469 C 31.644531 42.855469 31.976562 42.523438 32.476562 42.523438 C 32.972656 42.523438 33.304688 42.855469 33.304688 43.355469 L 33.304688 49.507812 C 33.304688 50.007812 32.808594 50.339844 32.476562 50.339844 Z M 32.476562 50.339844"/><path fill="#FFF" d="M 32.476562 102.226562 C 31.976562 102.226562 31.644531 101.890625 31.644531 101.394531 L 31.644531 55.992188 C 31.644531 55.496094 31.976562 55.164062 32.476562 55.164062 C 32.972656 55.164062 33.304688 55.496094 33.304688 55.992188 L 33.304688 101.394531 C 33.304688 101.890625 32.808594 102.226562 32.476562 102.226562 Z M 32.476562 102.226562"/><g fill="#3D3A72"><g><g><path d="M 55.507812 -71.195312 L 6.109375 -71.195312 L 6.109375 0 L 19.148438 0 L 19.148438 -24.445312 L 56.324219 -24.445312 L 56.324219 -24.546875 C 80.664062 -24.75 100.832031 -27.601562 100.832031 -48.988281 C 100.832031 -71.195312 70.582031 -71.195312 55.507812 -71.195312 Z M 52.25 -37.582031 L 19.148438 -37.582031 L 19.148438 -58.054688 L 55.507812 -58.054688 C 64.574219 -58.054688 87.695312 -58.054688 87.695312 -48.988281 C 87.695312 -43.695312 88.609375 -37.582031 52.25 -37.582031 Z M 52.25 -37.582031" transform="translate(19.414 185.097)"/></g></g></g><g fill="#3D3A72"><g><g><path d="M 31.574219 -71.296875 L 31.574219 -45.425781 L 19.25 -45.425781 L 19.148438 -71.296875 L 6.109375 -71.296875 L 6.109375 0.101562 L 19.25 0.101562 L 19.25 -32.386719 L 31.574219 -32.386719 L 31.574219 0.101562 L 44.710938 0.101562 L 44.710938 -71.296875 Z M 31.574219 -71.296875" transform="translate(137.245 185.097)"/></g></g></g><g fill="#3D3A72"><g><g><path d="M 23.628906 -71.398438 C 11.507812 -71.398438 2.34375 -56.019531 2.34375 -35.648438 C 2.34375 -15.277344 11.507812 0.101562 23.628906 0.101562 C 35.851562 0.101562 45.019531 -15.277344 45.019531 -35.648438 C 45.019531 -56.019531 35.851562 -71.398438 23.628906 -71.398438 Z M 23.628906 -13.140625 C 21.285156 -13.140625 15.378906 -20.980469 15.378906 -35.648438 C 15.378906 -50.3125 21.285156 -58.15625 23.628906 -58.15625 C 26.074219 -58.15625 31.878906 -50.3125 31.878906 -35.648438 C 31.878906 -20.980469 26.074219 -13.140625 23.628906 -13.140625 Z M 23.628906 -13.140625" transform="translate(198.86 185.097)"/></g></g></g><g fill="#3D3A72"><g><g><path d="M 33 -71.398438 L 33 -37.175781 L 20.066406 -71.398438 L 6.109375 -71.398438 L 6.109375 0 L 19.25 0 L 19.25 -36.359375 L 33 0 L 33 0.101562 L 46.136719 0.101562 L 46.136719 -71.398438 Z M 33 -71.398438" transform="translate(257.115 185.097)"/></g></g></g><g fill="#3D3A72"><g><g><path d="M 39.824219 -58.054688 L 39.824219 -71.398438 L 6.109375 -71.398438 L 6.109375 0.101562 L 39.824219 0.101562 L 39.824219 -13.140625 L 19.148438 -13.140625 L 19.148438 -32.386719 L 33.609375 -32.386719 L 33.609375 -45.527344 L 19.148438 -45.527344 L 19.148438 -58.054688 Z M 39.824219 -58.054688" transform="translate(320.156 185.097)"/></g></g></g><g fill="#3D3A72"><g><g><path d="M 2.363281 0 L 7.402344 0 L 7.402344 -12.71875 L 32.054688 -12.71875 L 32.054688 -17.800781 L 7.402344 -17.800781 L 7.402344 -22.484375 L 40.007812 -22.484375 L 40.007812 -27.566406 L 2.363281 -27.566406 Z M 2.363281 0" transform="translate(148.964 233.24)"/></g></g></g><g fill="#3D3A72"><g><g><path d="M 7.402344 0 L 7.402344 -27.566406 L 2.363281 -27.566406 L 2.363281 0 Z M 7.402344 0" transform="translate(207.047 233.24)"/></g></g></g><g fill="#3D3A72"><g><g><path d="M 12.757812 -27.605469 L 12.757812 -14.375 L 7.757812 -27.605469 L 2.363281 -27.605469 L 2.363281 0 L 7.441406 0 L 7.441406 -14.058594 L 12.757812 0 L 12.757812 0.0390625 L 17.839844 0.0390625 L 17.839844 -27.605469 Z M 12.757812 -27.605469" transform="translate(232.527 233.24)"/></g></g></g><g fill="#3D3A72"><g><g><path d="M 8.347656 -27.605469 L 2.363281 -27.605469 L 2.363281 0 L 8.9375 0 C 12.246094 0 17.128906 -3.859375 17.128906 -14.492188 C 17.128906 -24.140625 12.40625 -27.605469 8.347656 -27.605469 Z M 8.9375 -5.121094 L 7.402344 -5.121094 L 7.402344 -22.484375 L 8.347656 -22.484375 C 10.042969 -22.484375 12.050781 -20.398438 12.050781 -14.492188 C 12.050781 -7.875 9.726562 -5.238281 8.9375 -5.121094 Z M 8.9375 -5.121094" transform="translate(268.402 233.24)"/></g></g></g><g fill="#3D3A72"><g><g><path d="M 15.398438 -22.445312 L 15.398438 -27.605469 L 2.363281 -27.605469 L 2.363281 0.0390625 L 15.398438 0.0390625 L 15.398438 -5.078125 L 7.402344 -5.078125 L 7.402344 -12.523438 L 12.996094 -12.523438 L 12.996094 -17.601562 L 7.402344 -17.601562 L 7.402344 -22.445312 Z M 15.398438 -22.445312" transform="translate(303.608 233.24)"/></g></g></g><g fill="#3D3A72"><g><g><path d="M 17.167969 -18.980469 C 17.167969 -24.691406 14.765625 -27.605469 9.964844 -27.605469 L 2.363281 -27.605469 L 2.363281 0 L 7.402344 0 L 7.402344 -9.492188 L 8.113281 -9.492188 L 11.734375 0 L 17.128906 0 L 13.269531 -10.199219 C 16.617188 -11.65625 17.167969 -15.359375 17.167969 -18.980469 Z M 9.53125 -14.414062 L 7.402344 -14.414062 L 7.402344 -22.683594 L 9.332031 -22.683594 C 10.59375 -22.683594 12.128906 -21.660156 12.128906 -18.746094 C 12.128906 -15.554688 10.554688 -14.414062 9.53125 -14.414062 Z M 9.53125 -14.414062" transform="translate(337.042 233.24)"/></g></g></g></svg>